{
    "asset" : {
        "generator" : "Khronos glTF Blender I/O v1.7.33",
        "version" : "2.0"
    },
    "scene" : 0,
    "scenes" : [
        {
            "name" : "Scene",
            "nodes" : [
                0,
                1,
                2
            ]
        }
    ],
    "nodes" : [
        {
            "mesh" : 0,
            "name" : "FourInARowV2"
        },
        {
            "mesh" : 1,
            "name" : "4_connect_disc",
            "translation" : [
                10.945757865905762,
                0,
                0
            ]
        },
        {
            "mesh" : 2,
            "name" : "4_connect_disc.001",
            "translation" : [
                -14.777935981750488,
                0,
                0
            ]
        }
    ],
    "materials" : [
        {
            "doubleSided" : true,
            "name" : "Material.001",
            "pbrMetallicRoughness" : {
                "baseColorFactor" : [
                    0.004759658128023148,
                    0,
                    0.5488520264625549,
                    1
                ],
                "metallicFactor" : 0,
                "roughnessFactor" : 0.5
            }
        },
        {
            "doubleSided" : true,
            "name" : "red_ficha",
            "pbrMetallicRoughness" : {
                "baseColorFactor" : [
                    0.5925782918930054,
                    0,
                    0.005957396700978279,
                    1
                ],
                "metallicFactor" : 0,
                "roughnessFactor" : 0.5
            }
        },
        {
            "doubleSided" : true,
            "name" : "blue-ficha",
            "pbrMetallicRoughness" : {
                "baseColorFactor" : [
                    0,
                    0.7484033107757568,
                    0.08439156413078308,
                    1
                ],
                "metallicFactor" : 0,
                "roughnessFactor" : 0.5
            }
        }
    ],
    "meshes" : [
        {
            "name" : "FourInARowV2",
            "primitives" : [
                {
                    "attributes" : {
                        "POSITION" : 0,
                        "NORMAL" : 1
                    },
                    "indices" : 2,
                    "material" : 0
                }
            ]
        },
        {
            "name" : "4_connect_disc",
            "primitives" : [
                {
                    "attributes" : {
                        "POSITION" : 3,
                        "NORMAL" : 4
                    },
                    "indices" : 5,
                    "material" : 1
                }
            ]
        },
        {
            "name" : "4_connect_disc.001",
            "primitives" : [
                {
                    "attributes" : {
                        "POSITION" : 6,
                        "NORMAL" : 7
                    },
                    "indices" : 5,
                    "material" : 2
                }
            ]
        }
    ],
    "accessors" : [
        {
            "bufferView" : 0,
            "componentType" : 5126,
            "count" : 18947,
            "max" : [
                47.5,
                65,
                8.375
            ],
            "min" : [
                -47.5,
                0,
                -8.375
            ],
            "type" : "VEC3"
        },
        {
            "bufferView" : 1,
            "componentType" : 5126,
            "count" : 18947,
            "type" : "VEC3"
        },
        {
            "bufferView" : 2,
            "componentType" : 5123,
            "count" : 35292,
            "type" : "SCALAR"
        },
        {
            "bufferView" : 3,
            "componentType" : 5126,
            "count" : 415,
            "max" : [
                8,
                4.300000190734863,
                -62.70000076293945
            ],
            "min" : [
                -2.299999952316284,
                0,
                -73
            ],
            "type" : "VEC3"
        },
        {
            "bufferView" : 4,
            "componentType" : 5126,
            "count" : 415,
            "type" : "VEC3"
        },
        {
            "bufferView" : 5,
            "componentType" : 5123,
            "count" : 756,
            "type" : "SCALAR"
        },
        {
            "bufferView" : 6,
            "componentType" : 5126,
            "count" : 415,
            "max" : [
                8,
                4.300000190734863,
                -62.70000076293945
            ],
            "min" : [
                -2.299999952316284,
                0,
                -73
            ],
            "type" : "VEC3"
        },
        {
            "bufferView" : 7,
            "componentType" : 5126,
            "count" : 415,
            "type" : "VEC3"
        }
    ],
    "bufferViews" : [
        {
            "buffer" : 0,
            "byteLength" : 227364,
            "byteOffset" : 0
        },
        {
            "buffer" : 0,
            "byteLength" : 227364,
            "byteOffset" : 227364
        },
        {
            "buffer" : 0,
            "byteLength" : 70584,
            "byteOffset" : 454728
        },
        {
            "buffer" : 0,
            "byteLength" : 4980,
            "byteOffset" : 525312
        },
        {
            "buffer" : 0,
            "byteLength" : 4980,
            "byteOffset" : 530292
        },
        {
            "buffer" : 0,
            "byteLength" : 1512,
            "byteOffset" : 535272
        },
        {
            "buffer" : 0,
            "byteLength" : 4980,
            "byteOffset" : 536784
        },
        {
            "buffer" : 0,
            "byteLength" : 4980,
            "byteOffset" : 541764
        }
    ],
    "buffers" : [
        {
            "byteLength" : 546744,
            "uri" : "data:application/octet-stream;base64,"
        }
    ]
}
